<?xml version="1.0" standalone="no"?>
<!DOCTYPE svg PUBLIC "-//W3C//DTD SVG 20010904//EN"
 "http://www.w3.org/TR/2001/REC-SVG-20010904/DTD/svg10.dtd">
<svg version="1.0" xmlns="http://www.w3.org/2000/svg"
 width="225.000000pt" height="225.000000pt" viewBox="0 0 225.000000 225.000000"
 preserveAspectRatio="xMidYMid meet">

<g transform="translate(0.000000,225.000000) scale(0.100000,-0.100000)"
fill="#000000" stroke="none">
<path d="M973 1621 c-50 -60 -66 -72 -113 -86 -107 -33 -226 -105 -328 -200
l-59 -54 -44 45 c-75 76 -159 83 -223 19 -44 -43 -60 -113 -54 -224 4 -69 2
-81 -11 -82 -39 -1 58 -26 609 -155 322 -75 588 -140 592 -143 4 -3 1 -24 -6
-45 -17 -49 -8 -84 28 -110 54 -41 245 -30 418 24 l62 19 134 -35 c73 -20 136
-33 139 -31 2 3 -4 8 -15 11 -15 5 -21 19 -25 67 -9 80 -49 196 -102 295 -26
48 -40 85 -35 90 20 20 42 143 43 236 0 54 -2 100 -5 103 -3 3 -50 -12 -103
-33 l-98 -39 -76 51 c-120 82 -259 134 -511 191 -15 3 -49 35 -85 80 -33 40
-63 74 -67 74 -3 1 -33 -30 -65 -68z m132 -26 c41 -51 67 -75 81 -75 44 0 252
-59 339 -96 49 -21 125 -62 169 -91 l80 -54 88 36 c48 19 93 35 99 35 20 0 5
-226 -19 -288 l-20 -53 43 -82 c72 -136 128 -337 93 -337 -25 -1 -188 45 -188
52 0 5 8 8 18 9 9 0 12 3 6 5 -6 2 -40 -7 -76 -20 -95 -36 -278 -69 -355 -64
-139 9 -162 92 -56 209 19 21 31 39 25 39 -5 0 -23 -15 -40 -34 l-29 -33 -589
138 c-323 77 -593 144 -599 150 -5 5 -10 55 -10 112 0 84 4 109 21 141 28 55
66 81 118 81 57 0 107 -34 156 -109 22 -32 40 -53 40 -47 0 6 -6 20 -12 32
-12 18 -8 24 37 64 120 107 283 201 365 212 22 3 40 10 40 15 0 12 99 128 108
128 4 -1 34 -34 67 -75z"/>
<path d="M770 1191 c-12 -23 -5 -47 16 -55 22 -8 54 11 54 32 0 41 -51 57 -70
23z"/>
<path d="M911 1114 c20 -24 51 -33 78 -22 19 7 27 4 38 -12 15 -21 66 -27 91
-12 7 5 -8 8 -35 8 -45 -1 -48 1 -51 27 -3 26 -4 26 -25 12 -27 -19 -61 -19
-81 0 -20 20 -32 19 -15 -1z"/>
<path d="M1343 1014 c-9 -24 10 -49 38 -49 20 0 24 5 24 30 0 25 -4 30 -28 33
-18 2 -29 -2 -34 -14z"/>
</g>
</svg>
